<?xml version="1.0" encoding="utf-8"?>
<!-- Generator: Adobe Illustrator 25.0.1, SVG Export Plug-In . SVG Version: 6.00 Build 0)  -->
<svg version="1.1" id="Livello_1" xmlns="http://www.w3.org/2000/svg" xmlns:xlink="http://www.w3.org/1999/xlink" x="0px" y="0px"
	 viewBox="0 0 556 155" style="enable-background:new 0 0 556 155;" xml:space="preserve">
<style type="text/css">
	.st0{fill:none;stroke:#000000;}
	.st1{fill-rule:evenodd;clip-rule:evenodd;}
	.st2{fill-rule:evenodd;clip-rule:evenodd;fill:none;}
</style>
<path class="st0" d="M194.8,48.7c27.5,0.7,45.6,4.9,46.5,12c0.9,6.8-13.8,14.8-37.9,22.1 M57,64.8C25.8,72.9,3.7,83.1,4.7,91
	c1.6,12.5,55.9,15.9,121.2,7.5c13.1-1.7,25.6-3.7,37.3-6"/>
<path class="st1" d="M163.8,149c6.9-1.1,15.5-1.8,23-1.7c12.6-0.1,13.2-5.5,13.5-8.9c0.2-2.9,0-5.7-0.1-7.5c0-0.5-0.1-0.9-0.1-1.2
	c0-1.1,0.6-1.9,1.3-2.8c0.3-0.4,0.6-0.8,0.9-1.3c1-1.6-1.1-5.6-1.1-5.6c4.4-1.3,5-3.6,5.1-4.5c0-0.5-0.3-1.4-0.6-2.6
	c-0.2-0.9-0.5-1.9-0.7-2.9c-0.7-2.4-0.4-3.3,3.6-4.4c2.1-0.5,3.8-1.5,5-3.4c0.6-0.9,1.2-1.8,0.9-3c0-0.9-1-2.3-1.8-3.5
	c-0.4-0.6-0.8-1.1-1-1.5c-1.4-2.2-3.4-5-3.4-5c-1.4-2.2-5-7.9-6.8-9.6c-1.6-1.7-2.8-4.6-3.1-7c-0.2-1.3,0.1-3.2,0.4-5.1
	c0.3-1.8,0.5-3.7,0.5-5.2c-0.3-3.3-1.6-6.8-2.8-10c-0.1-0.2-0.2-0.4-0.2-0.7c-0.7-1.9-1.2-3.8-1.6-5.8c-0.5-1.9-0.9-3.9-1.6-5.8
	c-5.2-15.7-17.2-28.8-33-34c-7.8-2.1-16.5-2.9-24.8-2.7l-6.4,0.3c-8.5,0.8-16.9,2.5-24.9,5.6C15.2,48.3,53.3,167.2,163.8,149z
	 M132.9,9.6c10.4,3.2,31,22.4,30.6,72.8c-0.5,63.1-30.6,63.6-38.4,63.1c-7.9-0.5-61.5-15.4-65-63.1C56.5,34.8,102.3,6.1,132.9,9.6z
	 M163.4,91.1c14.9-2.9,28.3-6.2,39.7-9.6l0.8,2.6c-11.4,3.5-25,6.8-39.9,9.7L163.4,91.1z"/>
<path class="st2" d="M128.9,32.4c0,0.7-0.6,1.2-1.2,1.2c-0.7,0-1.2-0.6-1.2-1.2c0-0.7,0.6-1.2,1.2-1.2
	C128.4,31.2,128.9,31.8,128.9,32.4z M79,69.5l-1.1-0.3l-0.3-1.1c0-0.1-0.1-0.1-0.1-0.1s-0.1,0-0.1,0.1l-0.3,1.1L76,69.5
	c-0.1,0-0.1,0.1-0.1,0.1c0,0.1,0,0.1,0.1,0.1l1.1,0.3l0.3,1.1c0,0.1,0.1,0.1,0.1,0.1s0.1,0,0.1-0.1l0.3-1.1l1.1-0.3
	c0.1,0,0.1-0.1,0.1-0.1C79,69.5,79,69.5,79,69.5z M81.9,73.6c0.3,0,0.6-0.3,0.6-0.6c0-0.3-0.3-0.6-0.6-0.6c-0.3,0-0.6,0.3-0.6,0.6
	C81.2,73.3,81.5,73.6,81.9,73.6z M119.3,54.8c0.7,0,1.2-0.6,1.2-1.2c0-0.7-0.6-1.2-1.2-1.2c-0.7,0-1.2,0.6-1.2,1.2
	C118,54.2,118.6,54.8,119.3,54.8z M135.5,66.7l-2.5-0.6c-0.1,0-0.2-0.1-0.2-0.3c0-0.1,0.1-0.2,0.2-0.3l2.5-0.6l0.6-2.5
	c0-0.1,0.1-0.2,0.3-0.2c0.1,0,0.2,0.1,0.3,0.2l0.6,2.5l2.5,0.6c0.1,0,0.2,0.1,0.2,0.3c0,0.1-0.1,0.2-0.2,0.3l-2.5,0.6l-0.6,2.5
	c0,0.1-0.1,0.2-0.3,0.2c-0.1,0-0.2-0.1-0.3-0.2L135.5,66.7z M91.8,52.6l-1.6-0.4l-0.4-1.6c0-0.1-0.1-0.1-0.2-0.1
	c-0.1,0-0.1,0.1-0.2,0.1l-0.4,1.6l-1.6,0.4c-0.1,0-0.1,0.1-0.1,0.2c0,0.1,0.1,0.1,0.1,0.2l1.6,0.4l0.4,1.6c0,0.1,0.1,0.1,0.2,0.1
	c0.1,0,0.1-0.1,0.2-0.1l0.4-1.6l1.6-0.4c0.1,0,0.1-0.1,0.1-0.2C92,52.7,91.9,52.6,91.8,52.6z M140,62.4l-1.1-0.3
	c-0.1,0-0.1-0.1-0.1-0.1c0-0.1,0-0.1,0.1-0.1l1.1-0.3l0.3-1.1c0-0.1,0.1-0.1,0.1-0.1c0.1,0,0.1,0,0.1,0.1l0.3,1.1l1.1,0.3
	c0.1,0,0.1,0.1,0.1,0.1c0,0.1,0,0.1-0.1,0.1l-1.1,0.3l-0.3,1.1c0,0.1-0.1,0.1-0.1,0.1c-0.1,0-0.1,0-0.1-0.1L140,62.4z M140.3,46.7
	l1.1,0.3l0.3,1.1c0,0.1,0.1,0.1,0.1,0.1c0.1,0,0.1,0,0.1-0.1l0.3-1.1l1.1-0.3c0,0,0.1-0.1,0.1-0.1c0-0.1,0-0.1-0.1-0.1l-1.1-0.3
	l-0.3-1.1c0-0.1-0.1-0.1-0.1-0.1c-0.1,0-0.1,0-0.1,0.1l-0.3,1.1l-1.1,0.3c0,0-0.1,0.1-0.1,0.1C140.2,46.6,140.3,46.7,140.3,46.7z
	 M106.3,49.6l-1.1-0.3c-0.1,0-0.1-0.1-0.1-0.1c0-0.1,0-0.1,0.1-0.1l1.1-0.3l0.3-1.1c0-0.1,0.1-0.1,0.1-0.1s0.1,0,0.1,0.1l0.3,1.1
	l1.1,0.3c0.1,0,0.1,0.1,0.1,0.1c0,0.1,0,0.1-0.1,0.1l-1.1,0.3l-0.3,1.1c0,0.1-0.1,0.1-0.1,0.1s-0.1,0-0.1-0.1L106.3,49.6z
	 M142.5,68.9l1.1,0.3l0.3,1.1c0,0.1,0.1,0.1,0.1,0.1c0.1,0,0.1,0,0.1-0.1l0.3-1.1l1.1-0.3c0.1,0,0.1-0.1,0.1-0.1
	c0-0.1,0-0.1-0.1-0.1l-1.1-0.3l-0.3-1.1c0-0.1-0.1-0.1-0.1-0.1c-0.1,0-0.1,0-0.1,0.1l-0.3,1.1l-1.1,0.3c-0.1,0-0.1,0.1-0.1,0.1
	C142.5,68.8,142.5,68.8,142.5,68.9z M109.7,60.2c0,0.3-0.3,0.6-0.6,0.6s-0.6-0.3-0.6-0.6c0-0.3,0.3-0.6,0.6-0.6
	S109.7,59.9,109.7,60.2z M122,51c0.3,0,0.6-0.3,0.6-0.6s-0.3-0.6-0.6-0.6c-0.3,0-0.6,0.3-0.6,0.6S121.7,51,122,51z M122,62.3
	c0,0.3-0.3,0.6-0.6,0.6c-0.3,0-0.6-0.3-0.6-0.6s0.3-0.6,0.6-0.6C121.7,61.7,122,62,122,62.3z M110,46.2c0.3,0,0.6-0.3,0.6-0.6
	c0-0.3-0.3-0.6-0.6-0.6c-0.3,0-0.6,0.3-0.6,0.6C109.4,45.9,109.7,46.2,110,46.2z M97.8,67.5c0,0.3-0.3,0.6-0.6,0.6
	c-0.3,0-0.6-0.3-0.6-0.6c0-0.3,0.3-0.6,0.6-0.6C97.5,66.9,97.8,67.2,97.8,67.5z"/>
<path d="M278,104.7c-1.9,0-3.5-0.4-5.1-1.2c-1.5-0.8-2.7-2-3.5-3.4c-0.8-1.4-1.3-3.1-1.3-4.9c0-1.8,0.4-3.4,1.3-4.9
	c0.9-1.4,2-2.6,3.5-3.4c1.5-0.8,3.2-1.3,5.1-1.3s3.5,0.4,5,1.2c1.5,0.8,2.7,2,3.5,3.4c0.9,1.4,1.3,3.1,1.3,4.9
	c0,1.8-0.4,3.4-1.3,4.9c-0.9,1.4-2,2.6-3.5,3.4C281.5,104.3,279.9,104.7,278,104.7z M278,102.9c1.5,0,2.8-0.3,4-1
	c1.2-0.7,2.1-1.6,2.8-2.8c0.7-1.2,1-2.5,1-4c0-1.5-0.3-2.8-1-4c-0.7-1.2-1.6-2.1-2.8-2.8c-1.2-0.7-2.5-1-4-1s-2.8,0.3-4,1
	c-1.2,0.7-2.1,1.6-2.8,2.8c-0.7,1.2-1,2.5-1,4c0,1.5,0.3,2.8,1,4c0.7,1.2,1.6,2.1,2.8,2.8C275.2,102.6,276.5,102.9,278,102.9z
	 M322.2,104.5l-4.3-6c-0.5,0.1-1,0.1-1.5,0.1h-5v5.9h-2V85.8h7c2.4,0,4.3,0.6,5.6,1.7c1.4,1.1,2,2.7,2,4.7c0,1.5-0.4,2.7-1.1,3.7
	c-0.7,1-1.8,1.7-3.2,2.2l4.6,6.4H322.2z M316.4,96.9c1.9,0,3.3-0.4,4.3-1.2c1-0.8,1.5-2,1.5-3.5c0-1.5-0.5-2.7-1.5-3.5
	c-1-0.8-2.4-1.2-4.3-1.2h-5v9.4H316.4z M345.9,85.8h2v18.7h-2V85.8z M384.4,95.1h1.9v7.2c-0.9,0.8-1.9,1.4-3.1,1.8
	c-1.2,0.4-2.5,0.6-3.8,0.6c-1.9,0-3.6-0.4-5.1-1.2c-1.5-0.8-2.7-2-3.5-3.4c-0.9-1.5-1.3-3.1-1.3-4.9c0-1.8,0.4-3.4,1.3-4.9
	c0.9-1.5,2-2.6,3.5-3.4c1.5-0.8,3.2-1.2,5.1-1.2c1.4,0,2.7,0.2,3.9,0.7c1.2,0.4,2.2,1.1,3,2l-1.2,1.3c-1.5-1.5-3.4-2.2-5.7-2.2
	c-1.5,0-2.9,0.3-4.1,1c-1.2,0.7-2.2,1.6-2.9,2.8c-0.7,1.2-1,2.5-1,4c0,1.5,0.3,2.8,1,4c0.7,1.2,1.7,2.1,2.9,2.8c1.2,0.7,2.6,1,4.1,1
	c1.9,0,3.6-0.5,4.9-1.4V95.1z M409.2,85.8h1.4v18.7h-1.4V85.8z M449.5,85.8v18.7h-1.1l-12.8-16.3v16.3h-1.4V85.8h1.2l12.7,16.3V85.8
	H449.5z M484.8,99.2h-10.9l-2.4,5.3h-1.5l8.6-18.7h1.4l8.6,18.7h-1.5L484.8,99.2z M484.3,98.1l-4.9-10.8l-4.9,10.8H484.3z
	 M509.2,85.8h1.4v17.5h10.8v1.2h-12.2V85.8z M546.7,104.6c-1.4,0-2.7-0.2-3.9-0.7c-1.2-0.5-2.2-1.1-2.9-1.8l0.6-1
	c0.7,0.7,1.5,1.3,2.7,1.7c1.1,0.4,2.3,0.6,3.5,0.6c1.8,0,3.1-0.3,4-1c0.9-0.7,1.4-1.6,1.4-2.7c0-0.8-0.2-1.5-0.7-2
	c-0.5-0.5-1.1-0.9-1.8-1.2c-0.7-0.3-1.7-0.5-2.9-0.8c-1.4-0.3-2.5-0.7-3.3-1c-0.8-0.3-1.5-0.8-2.1-1.5c-0.6-0.7-0.9-1.6-0.9-2.7
	c0-0.9,0.2-1.7,0.7-2.5c0.5-0.8,1.2-1.4,2.2-1.8c1-0.4,2.2-0.7,3.7-0.7c1,0,2.1,0.2,3.1,0.5c1,0.3,1.9,0.7,2.6,1.2l-0.5,1.1
	c-0.8-0.5-1.6-0.9-2.5-1.2c-0.9-0.3-1.8-0.4-2.7-0.4c-1.7,0-3,0.3-3.9,1c-0.9,0.7-1.3,1.6-1.3,2.7c0,0.8,0.2,1.5,0.7,2
	c0.5,0.5,1.1,0.9,1.8,1.2c0.7,0.3,1.7,0.6,2.9,0.9c1.4,0.3,2.5,0.7,3.3,1c0.8,0.3,1.5,0.8,2.1,1.5c0.6,0.6,0.9,1.5,0.9,2.6
	c0,0.9-0.2,1.7-0.8,2.5c-0.5,0.8-1.2,1.3-2.2,1.8C549.5,104.4,548.2,104.6,546.7,104.6z"/>
<path class="st1" d="M280.6,45.9c5.7,0,10.2,4.6,10.2,10.2c0,0.2,0,0.4,0,0.6c-1-0.5-2.2-0.8-3.4-1c-2.2-0.2-4.3,0.3-6.1,1.4
	c-0.3,0.2-0.5,0.3-0.8,0.5c-0.2-0.2-0.5-0.4-0.8-0.5c-1.8-1.1-3.9-1.7-6.1-1.4c-1.2,0.1-2.3,0.4-3.4,1c0-0.2,0-0.4,0-0.6
	C270.4,50.5,275,45.9,280.6,45.9z M273.8,57.3c-3.6,0.3-6.6,2.6-7.9,5.7c5.5-4.3,11.9-2.6,14.8,3.6v0l0,0c2.9-6.2,9.3-7.8,14.8-3.6
	c-1.4-3.1-4.3-5.4-7.9-5.7c-2.2-0.2-4.3,0.3-6.1,1.4c-0.3,0.2-0.5,0.3-0.8,0.5c-0.2-0.2-0.5-0.4-0.8-0.5
	C278.1,57.6,276,57,273.8,57.3z"/>
<path d="M319.4,65.2l0-11l-5.2,9h-1.9l-5.2-8.8v10.7h-3.9V47h3.4l6.6,11.4l6.5-11.4h3.4l0.1,18.3L319.4,65.2L319.4,65.2z"/>
<path d="M331.1,56.1c0-5.2,4-9.1,9.6-9.1c5.5,0,9.6,3.9,9.6,9.1s-4.1,9.1-9.6,9.1C335.2,65.2,331.1,61.4,331.1,56.1z M346.1,56.1
	c0-3.4-2.3-5.7-5.5-5.7s-5.5,2.3-5.5,5.7s2.3,5.7,5.5,5.7S346.1,59.5,346.1,56.1z"/>
<path d="M362.1,50.4h-5.8V47H372v3.4h-5.8v14.8h-4.2L362.1,50.4L362.1,50.4z"/>
<path d="M379,47h4.4v18.3H379V47z"/>
</svg>
